<?xml version="1.0" encoding="UTF-8" standalone="no"?>
<svg
   xmlns:dc="http://purl.org/dc/elements/1.1/"
   xmlns:cc="http://creativecommons.org/ns#"
   xmlns:rdf="http://www.w3.org/1999/02/22-rdf-syntax-ns#"
   xmlns:svg="http://www.w3.org/2000/svg"
   xmlns="http://www.w3.org/2000/svg"
   xmlns:sodipodi="http://sodipodi.sourceforge.net/DTD/sodipodi-0.dtd"
   xmlns:inkscape="http://www.inkscape.org/namespaces/inkscape"
   width="200"
   height="200"
   viewBox="0 0 800 800"
   version="1.1"
   id="svg46"
   sodipodi:docname="electrical-background.svg"
   inkscape:version="1.0.2-2 (e86c870879, 2021-01-15)">
  <metadata
     id="metadata52">
    <rdf:RDF>
      <cc:Work
         rdf:about="">
        <dc:format>image/svg+xml</dc:format>
        <dc:type
           rdf:resource="http://purl.org/dc/dcmitype/StillImage" />
      </cc:Work>
    </rdf:RDF>
  </metadata>
  <defs
     id="defs50" />
  <sodipodi:namedview
     pagecolor="#ffffff"
     bordercolor="#666666"
     borderopacity="1"
     objecttolerance="10"
     gridtolerance="10"
     guidetolerance="10"
     inkscape:pageopacity="0"
     inkscape:pageshadow="2"
     inkscape:window-width="3654"
     inkscape:window-height="2126"
     id="namedview48"
     showgrid="false"
     inkscape:zoom="3.4292455"
     inkscape:cx="66.830381"
     inkscape:cy="66.680796"
     inkscape:window-x="-11"
     inkscape:window-y="-11"
     inkscape:window-maximized="1"
     inkscape:current-layer="svg46"
     inkscape:document-rotation="0" />
  <path
     d="m 769,229 268,31.9 M 927,880 731,737 520,660 309,538 40,599 295,764 126.5,879.5 40,599 -197,493 102,382 -31,229 126.5,79.5 -69,-63"
     id="path4"
     style="fill:none;stroke:#202020;stroke-width:2.8;stroke-miterlimit:4;stroke-dasharray:none" />
  <path
     d="m -31,229 268,32 153,121 213,111 -294.5,44.5 -207,-156 M 370,905 295,764"
     id="path6"
     style="fill:none;stroke:#202020;stroke-width:2.8;stroke-miterlimit:4;stroke-dasharray:none" />
  <path
     d="M 520,660 578,842 731,737 840,599 603,493 520,660 295,764 309,538 390,382 539,269 769,229 577.5,41.5 370,105 295,-36 126.5,79.5 237,261 102,382 40,599 -69,737 127,880"
     id="path8"
     style="fill:none;stroke:#202020;stroke-width:2.8;stroke-miterlimit:4;stroke-dasharray:none" />
  <path
     d="M 520,-140 578.5,42.5 731,-63 M 603,493 539,269 237,261 370,105 M 902,382 539,269 M 390,382 H 102"
     id="path10"
     style="fill:none;stroke:#202020;stroke-width:2.8;stroke-miterlimit:4;stroke-dasharray:none" />
  <path
     d="M -222,42 126.5,79.5 370,105 539,269 577.5,41.5 927,80 769,229 902,382 603,493 731,737 M 295,-36 577.5,41.5 M 578,842 295,764 M 40,-201 127,80 M 102,382 -261,269"
     id="path12"
     style="fill:none;stroke:#202020;stroke-width:2.8;stroke-miterlimit:4;stroke-dasharray:none" />
  <g
     fill="#130013"
     id="g44"
     style="stroke:#202020;fill:#202020;stroke-width:2;stroke-miterlimit:4;stroke-dasharray:0,22;stroke-dashoffset:0">
    <circle
       cx="769"
       cy="229"
       r="15"
       id="circle16"
       style="stroke:#202020;fill:#202020;stroke-width:2;stroke-miterlimit:4;stroke-dasharray:0,22;stroke-dashoffset:0" />
    <circle
       cx="539"
       cy="269"
       r="15"
       id="circle18"
       style="stroke:#202020;fill:#202020;stroke-width:2;stroke-miterlimit:4;stroke-dasharray:0,22;stroke-dashoffset:0" />
    <circle
       cx="603"
       cy="493"
       r="15"
       id="circle20"
       style="stroke:#202020;fill:#202020;stroke-width:2;stroke-miterlimit:4;stroke-dasharray:0,22;stroke-dashoffset:0" />
    <circle
       cx="731"
       cy="737"
       r="15"
       id="circle22"
       style="stroke:#202020;fill:#202020;stroke-width:2;stroke-miterlimit:4;stroke-dasharray:0,22;stroke-dashoffset:0" />
    <circle
       cx="520"
       cy="660"
       r="15"
       id="circle24"
       style="stroke:#202020;fill:#202020;stroke-width:2;stroke-miterlimit:4;stroke-dasharray:0,22;stroke-dashoffset:0" />
    <circle
       cx="309"
       cy="538"
       r="15"
       id="circle26"
       style="stroke:#202020;fill:#202020;stroke-width:2;stroke-miterlimit:4;stroke-dasharray:0,22;stroke-dashoffset:0" />
    <circle
       cx="295"
       cy="764"
       r="15"
       id="circle28"
       style="stroke:#202020;fill:#202020;stroke-width:2;stroke-miterlimit:4;stroke-dasharray:0,22;stroke-dashoffset:0" />
    <circle
       cx="40"
       cy="599"
       r="15"
       id="circle30"
       style="stroke:#202020;fill:#202020;stroke-width:2;stroke-miterlimit:4;stroke-dasharray:0,22;stroke-dashoffset:0" />
    <circle
       cx="102"
       cy="382"
       r="15"
       id="circle32"
       style="stroke:#202020;fill:#202020;stroke-width:2;stroke-miterlimit:4;stroke-dasharray:0,22;stroke-dashoffset:0" />
    <circle
       cx="127"
       cy="80"
       r="15"
       id="circle34"
       style="stroke:#202020;fill:#202020;stroke-width:2;stroke-miterlimit:4;stroke-dasharray:0,22;stroke-dashoffset:0" />
    <circle
       cx="370"
       cy="105"
       r="15"
       id="circle36"
       style="stroke:#202020;fill:#202020;stroke-width:2;stroke-miterlimit:4;stroke-dasharray:0,22;stroke-dashoffset:0" />
    <circle
       cx="578"
       cy="42"
       r="15"
       id="circle38"
       style="stroke:#202020;fill:#202020;stroke-width:2;stroke-miterlimit:4;stroke-dasharray:0,22;stroke-dashoffset:0" />
    <circle
       cx="237"
       cy="261"
       r="15"
       id="circle40"
       style="stroke:#202020;fill:#202020;stroke-width:2;stroke-miterlimit:4;stroke-dasharray:0,22;stroke-dashoffset:0" />
    <circle
       cx="390"
       cy="382"
       r="15"
       id="circle42"
       style="stroke:#202020;fill:#202020;stroke-width:2;stroke-miterlimit:4;stroke-dasharray:0,22;stroke-dashoffset:0" />
  </g>
</svg>
